<?xml version="1.0" standalone="no"?>
<!DOCTYPE svg PUBLIC "-//W3C//DTD SVG 20010904//EN"
 "http://www.w3.org/TR/2001/REC-SVG-20010904/DTD/svg10.dtd">
<svg version="1.0" xmlns="http://www.w3.org/2000/svg"
 width="396.000000pt" height="215.000000pt" viewBox="0 0 396.000000 215.000000"
 preserveAspectRatio="xMidYMid meet">

<g transform="translate(0.000000,215.000000) scale(0.100000,-0.100000)"
fill="#000000" stroke="none">
<path d="M1448 1934 c-14 -22 -35 -58 -48 -80 -23 -41 -26 -42 -89 -48 -124
-13 -516 -84 -508 -92 2 -2 70 3 153 10 217 21 374 29 374 21 0 -4 -34 -62
-75 -129 l-75 -122 -172 -28 c-533 -87 -895 -234 -978 -396 -109 -213 280
-412 985 -505 99 -14 138 -23 165 -41 125 -83 357 -92 475 -19 14 8 109 14
325 18 419 8 742 42 1084 113 245 51 275 67 72 39 -137 -19 -405 -45 -469 -45
l-49 0 83 42 c62 30 103 60 155 112 l72 71 143 23 c278 43 478 98 644 176 198
94 273 203 215 315 -92 181 -551 344 -1184 421 -324 39 -420 44 -802 45 l-381
0 -46 69 -45 69 -24 -39z m655 -190 l89 -6 -43 -22 c-24 -11 -78 -53 -120 -93
l-76 -72 -194 -11 c-107 -5 -206 -10 -221 -10 l-27 0 59 99 c40 66 58 105 54
116 -7 16 6 17 192 11 109 -3 239 -9 287 -12z m872 -104 c304 -64 508 -142
596 -231 44 -43 49 -53 49 -92 0 -35 -7 -51 -35 -84 -41 -49 -154 -109 -282
-151 -103 -34 -290 -78 -298 -70 -3 3 -1 18 6 34 6 16 13 70 16 119 5 84 -2
132 -33 243 l-7 24 79 -6 c83 -6 71 2 -37 24 -53 10 -57 13 -97 74 -22 34 -61
81 -86 104 -25 23 -39 42 -31 42 8 0 80 -14 160 -30z m-1101 -265 c-13 -42
-24 -89 -24 -105 0 -30 0 -30 -59 29 -36 36 -85 72 -130 94 l-71 36 53 5 c67
8 128 12 198 14 l57 2 -24 -75z m-831 -112 c-72 -118 -92 -166 -100 -244 -7
-69 1 -67 -160 -43 -58 8 -107 13 -109 11 -2 -2 40 -13 94 -26 182 -43 172
-39 172 -69 0 -23 31 -121 54 -174 7 -14 -5 -14 -106 8 -344 74 -548 183 -548
294 0 119 242 242 640 324 63 13 117 22 119 20 2 -2 -23 -47 -56 -101z m1180
98 c37 -14 57 -39 57 -72 0 -27 -3 -29 -39 -29 -30 0 -40 4 -44 20 -4 15 -14
20 -40 20 -42 0 -66 -22 -47 -45 7 -8 18 -15 24 -15 31 0 91 -24 112 -45 45
-45 24 -129 -40 -159 -48 -23 -142 -21 -183 3 -31 19 -52 69 -38 91 3 5 24 10
45 10 32 0 39 -4 42 -22 2 -19 10 -24 44 -26 27 -2 45 2 54 13 19 22 -1 41
-65 60 -83 24 -113 75 -83 141 23 50 134 80 201 55z m359 -18 c12 -11 18 -30
18 -59 0 -34 -5 -47 -26 -63 l-26 -20 21 -22 c37 -40 22 -106 -31 -139 -27
-17 -51 -20 -136 -20 l-104 0 6 28 c3 15 12 79 21 142 9 63 18 127 21 143 l6
27 106 0 c84 0 109 -3 124 -17z m319 -10 c-7 -27 -10 -28 -78 -31 -63 -3 -72
-5 -77 -25 -14 -53 -10 -57 57 -57 l64 0 -5 -30 c-4 -30 -5 -30 -67 -30 -71 0
-64 8 -80 -97 l-7 -43 -44 0 c-41 0 -44 2 -39 23 4 20 45 302 45 313 0 2 54 4
119 4 l119 0 -7 -27z m-1365 -199 c22 -12 53 -41 71 -67 32 -47 52 -125 38
-147 -6 -9 -51 -11 -180 -5 -95 4 -188 10 -206 14 -32 7 -34 9 -31 47 8 101
115 190 218 182 28 -3 68 -13 90 -24z m-106 -284 c63 -6 130 -13 149 -16 l33
-5 -23 -25 c-67 -71 -192 -85 -270 -28 -22 16 -50 44 -62 63 l-21 34 40 -6
c21 -3 91 -11 154 -17z m599 -78 c73 -71 186 -131 296 -155 32 -7 -291 -8
-407 -1 l-105 7 37 54 c21 29 44 74 51 99 l14 45 39 -7 c26 -4 52 -19 75 -42z"/>
<path d="M3158 1413 c7 -3 16 -2 19 1 4 3 -2 6 -13 5 -11 0 -14 -3 -6 -6z"/>
<path d="M2418 1265 l-4 -35 43 0 c32 0 45 5 53 19 17 34 2 51 -45 51 -41 0
-43 -1 -47 -35z"/>
<path d="M2398 1125 l-4 -35 47 0 c48 0 59 9 59 51 0 16 -7 19 -49 19 -48 0
-49 0 -53 -35z"/>
<path d="M2929 813 c-18 -47 -22 -83 -11 -83 6 0 14 5 17 10 3 6 15 10 26 10
10 0 19 -4 19 -10 0 -5 7 -10 16 -10 13 0 15 7 11 28 -11 56 -26 82 -47 82
-13 0 -24 -10 -31 -27z"/>
<path d="M3020 785 c0 -42 3 -55 15 -55 9 0 15 9 16 23 l0 22 16 -22 c28 -40
43 -29 43 32 0 42 -3 55 -15 55 -8 0 -15 -7 -15 -17 0 -15 -1 -15 -18 0 -32
30 -42 21 -42 -38z"/>
<path d="M3132 828 c-7 -7 -12 -24 -12 -40 0 -48 66 -72 92 -34 12 17 9 61 -4
74 -15 15 -61 15 -76 0z m48 -43 c0 -14 -4 -25 -10 -25 -5 0 -10 11 -10 25 0
14 5 25 10 25 6 0 10 -11 10 -25z"/>
<path d="M3243 833 c-16 -6 -17 -39 -2 -49 8 -4 7 -9 -2 -15 -20 -14 19 -41
45 -33 42 13 48 50 11 64 -33 13 -32 19 3 12 24 -5 26 -4 13 11 -13 16 -43 21
-68 10z"/>
<path d="M3288 693 c7 -3 16 -2 19 1 4 3 -2 6 -13 5 -11 0 -14 -3 -6 -6z"/>
<path d="M3376 374 c-10 -27 3 -30 27 -6 l21 22 -21 0 c-11 0 -24 -7 -27 -16z"/>
<path d="M536 364 c-4 -11 0 -15 16 -12 12 2 23 9 26 16 6 18 -35 15 -42 -4z"/>
<path d="M846 349 c-5 -25 -9 -29 -26 -24 -49 16 -98 -63 -71 -113 10 -18 19
-20 73 -18 77 4 73 3 58 21 -9 11 -9 31 -1 84 14 87 14 81 -8 81 -13 0 -20
-10 -25 -31z m-12 -65 c7 -18 -14 -67 -29 -67 -18 0 -27 28 -16 56 12 30 35
36 45 11z"/>
<path d="M1177 373 c-4 -3 -7 -17 -7 -29 0 -20 -4 -23 -29 -18 -39 8 -71 -26
-71 -77 0 -48 13 -57 83 -57 43 0 57 3 57 14 0 8 -4 14 -8 14 -5 0 -3 36 3 80
11 73 10 80 -5 80 -9 0 -20 -3 -23 -7z m-19 -104 c3 -28 -23 -63 -39 -54 -10
7 -12 46 -3 70 10 24 39 13 42 -16z"/>
<path d="M2086 364 c-4 -11 0 -15 16 -12 12 2 23 9 26 16 6 18 -35 15 -42 -4z"/>
<path d="M2152 298 c-15 -107 -15 -108 6 -108 16 0 21 13 30 83 15 106 15 107
-6 107 -16 0 -21 -13 -30 -82z"/>
<path d="M2396 364 c-4 -11 0 -15 16 -12 12 2 23 9 26 16 6 18 -35 15 -42 -4z"/>
<path d="M2907 373 c-4 -3 -7 -17 -7 -29 0 -20 -4 -23 -29 -18 -39 8 -71 -26
-71 -77 0 -48 13 -57 83 -57 43 0 57 3 57 14 0 8 -4 14 -8 14 -5 0 -3 36 3 80
11 73 10 80 -5 80 -9 0 -20 -3 -23 -7z m-19 -104 c3 -28 -23 -63 -39 -54 -10
7 -12 46 -3 70 10 24 39 13 42 -16z"/>
<path d="M3580 365 c0 -8 9 -15 20 -15 11 0 20 7 20 15 0 8 -9 15 -20 15 -11
0 -20 -7 -20 -15z"/>
<path d="M56 351 c-29 -32 -17 -64 32 -81 28 -10 42 -20 40 -30 -4 -21 -47
-25 -54 -6 -9 22 -44 20 -44 -2 0 -29 21 -42 65 -42 28 0 48 7 64 21 34 32 24
60 -32 87 -26 12 -45 27 -42 32 8 13 55 13 55 0 0 -5 9 -10 20 -10 24 0 28 35
4 44 -34 13 -91 6 -108 -13z"/>
<path d="M1466 318 c-4 -29 -10 -70 -13 -90 l-6 -38 56 0 c73 0 106 24 91 66
-7 22 -6 35 5 55 23 41 3 59 -69 59 l-57 0 -7 -52z m97 16 c13 -13 -7 -34 -33
-34 -23 0 -27 4 -23 20 5 19 41 28 56 14z m-8 -83 c0 -19 -29 -36 -48 -28 -10
4 -14 13 -10 27 4 16 12 20 32 18 14 -2 26 -9 26 -17z"/>
<path d="M3196 318 c-4 -29 -10 -70 -13 -90 -5 -34 -3 -38 15 -38 16 0 23 8
28 35 6 32 9 35 40 35 24 0 34 5 34 15 0 10 -10 15 -30 15 -25 0 -30 4 -30 25
0 22 4 25 39 25 25 0 41 5 45 15 4 12 -6 15 -58 15 l-63 0 -7 -52z"/>
<path d="M243 318 c-12 -6 -27 -26 -34 -45 -16 -48 8 -83 56 -83 48 0 75 29
75 80 0 55 -41 75 -97 48z m57 -53 c0 -23 -6 -37 -19 -44 -24 -13 -31 -5 -31
34 0 36 6 45 32 45 14 0 18 -8 18 -35z"/>
<path d="M398 320 c-9 -6 -22 -26 -28 -45 -16 -49 6 -85 54 -85 29 0 66 24 66
43 0 13 -31 7 -47 -8 -21 -21 -33 -10 -33 31 0 40 25 57 45 31 12 -17 45 -24
45 -9 0 4 -7 18 -16 30 -16 23 -56 29 -86 12z"/>
<path d="M615 305 c-32 -31 -35 -89 -6 -105 30 -16 76 -12 94 8 10 10 17 22
17 25 0 13 -31 7 -46 -8 -17 -16 -44 -10 -44 11 0 10 13 14 44 14 48 0 64 17
46 50 -20 37 -71 40 -105 5z m66 -20 c0 -5 -9 -11 -21 -13 -20 -3 -27 8 -13
22 10 9 34 3 34 -9z"/>
<path d="M930 308 c-23 -25 -28 -89 -7 -106 6 -5 38 -10 70 -10 43 0 57 3 57
14 0 8 -4 14 -9 14 -5 0 -8 8 -6 18 17 83 16 85 -10 80 -14 -3 -28 -1 -31 3
-10 16 -43 9 -64 -13z m68 -39 c3 -28 -23 -63 -39 -54 -10 7 -12 46 -3 70 10
24 39 13 42 -16z"/>
<path d="M1268 320 c-9 -6 -22 -26 -28 -45 -17 -50 6 -85 55 -85 40 0 95 42
63 48 -10 2 -28 -4 -40 -12 -16 -11 -25 -13 -35 -4 -24 20 -13 28 37 28 46 0
50 2 50 24 0 47 -56 72 -102 46z m62 -35 c0 -9 -9 -15 -25 -15 -24 0 -32 10
-18 23 12 13 43 7 43 -8z"/>
<path d="M1686 322 c-3 -5 -17 -7 -31 -4 -20 3 -25 0 -25 -15 0 -11 -3 -41 -6
-67 -6 -42 -5 -46 13 -46 17 0 22 9 27 50 7 53 23 73 38 46 15 -27 40 -20 36
12 -2 19 -9 28 -25 30 -11 2 -24 -1 -27 -6z"/>
<path d="M1783 315 c-26 -18 -39 -75 -24 -103 9 -16 20 -20 68 -19 l58 0 1 63
c2 59 0 64 -20 63 -11 0 -30 2 -41 5 -11 4 -29 0 -42 -9z m58 -27 c5 -49 -15
-85 -37 -67 -17 14 -17 20 -4 53 10 27 39 36 41 14z"/>
<path d="M1946 317 c-27 -20 -17 -58 19 -70 39 -12 42 -16 26 -26 -7 -5 -26
-4 -42 2 -33 13 -47 4 -29 -18 14 -17 72 -20 101 -5 11 6 19 21 19 35 0 20 -8
26 -40 36 -49 15 -41 33 11 24 42 -7 53 7 20 25 -27 14 -64 13 -85 -3z"/>
<path d="M2248 320 c-9 -6 -22 -26 -28 -45 -17 -50 6 -85 55 -85 40 0 95 42
63 48 -10 2 -28 -4 -40 -12 -16 -11 -25 -13 -35 -4 -24 20 -13 28 37 28 46 0
50 2 50 24 0 47 -56 72 -102 46z m62 -35 c0 -9 -9 -15 -25 -15 -24 0 -32 10
-18 23 12 13 43 7 43 -8z"/>
<path d="M2516 322 c-3 -5 -17 -7 -31 -4 -20 3 -25 0 -25 -15 0 -11 -3 -41 -6
-67 -6 -42 -5 -46 13 -46 17 0 22 9 27 50 7 53 23 73 38 46 15 -27 40 -20 36
12 -2 19 -9 28 -25 30 -11 2 -24 -1 -27 -6z"/>
<path d="M2600 308 c-23 -25 -28 -89 -7 -106 6 -5 38 -10 70 -10 43 0 57 3 57
14 0 8 -4 14 -9 14 -5 0 -8 8 -6 18 17 83 16 85 -10 80 -14 -3 -28 -1 -31 3
-10 16 -43 9 -64 -13z m68 -39 c3 -28 -23 -63 -39 -54 -10 7 -12 46 -3 70 10
24 39 13 42 -16z"/>
<path d="M2998 320 c-9 -6 -22 -26 -28 -45 -17 -50 6 -85 55 -85 40 0 95 42
63 48 -10 2 -28 -4 -40 -12 -16 -11 -25 -13 -35 -4 -24 20 -13 28 37 28 46 0
50 2 50 24 0 47 -56 72 -102 46z m62 -35 c0 -9 -9 -15 -25 -15 -24 0 -32 10
-18 23 12 13 43 7 43 -8z"/>
<path d="M3436 317 c-27 -20 -17 -58 19 -70 39 -12 42 -16 26 -26 -7 -5 -26
-4 -42 2 -33 13 -47 4 -29 -18 14 -17 72 -20 101 -5 11 6 19 21 19 35 0 20 -8
26 -40 36 -49 15 -41 33 11 24 42 -7 53 7 20 25 -27 14 -64 13 -85 -3z"/>
<path d="M3668 320 c-9 -6 -22 -26 -28 -45 -16 -49 6 -85 54 -85 29 0 66 24
66 43 0 13 -31 7 -47 -8 -21 -21 -33 -10 -33 31 0 40 25 57 45 31 12 -17 45
-24 45 -9 0 4 -7 18 -16 30 -16 23 -56 29 -86 12z"/>
<path d="M3800 308 c-23 -25 -28 -89 -7 -106 6 -5 38 -10 70 -10 43 0 57 3 57
14 0 8 -4 14 -9 14 -5 0 -8 8 -6 18 17 83 16 85 -10 80 -14 -3 -28 -1 -31 3
-10 16 -43 9 -64 -13z m68 -39 c3 -28 -23 -63 -39 -54 -10 7 -12 46 -3 70 10
24 39 13 42 -16z"/>
<path d="M525 283 c-4 -21 -9 -50 -11 -65 -5 -23 -2 -28 15 -28 16 0 21 8 26
38 4 20 9 49 11 65 5 22 2 27 -15 27 -16 0 -21 -8 -26 -37z"/>
<path d="M2075 283 c-4 -21 -9 -50 -11 -65 -5 -23 -2 -28 15 -28 16 0 21 8 26
38 4 20 9 49 11 65 5 22 2 27 -15 27 -16 0 -21 -8 -26 -37z"/>
<path d="M2385 283 c-4 -21 -9 -50 -11 -65 -5 -23 -2 -28 15 -28 16 0 21 8 26
38 4 20 9 49 11 65 5 22 2 27 -15 27 -16 0 -21 -8 -26 -37z"/>
<path d="M3345 273 c-4 -27 -9 -56 -12 -65 -3 -13 1 -18 16 -18 21 0 26 11 36
83 6 42 4 47 -14 47 -16 0 -21 -9 -26 -47z"/>
<path d="M3570 301 c0 -10 -3 -39 -6 -65 -6 -41 -5 -46 13 -46 16 0 21 9 27
46 10 74 8 84 -14 84 -13 0 -20 -7 -20 -19z"/>
</g>
</svg>
